<svg xmlns="http://www.w3.org/2000/svg" width="512" height="512" viewBox="0 0 512 512" version="1.1">
	<path d="M 259 0.643 C 243.641 3.704, 233.888 8.201, 219.812 18.710 C 213.934 23.099, 206.670 27.975, 203.670 29.545 L 198.216 32.401 191.358 29.728 C 178.913 24.877, 172.246 23.550, 160.500 23.589 C 151.152 23.620, 148.303 24.039, 141.529 26.380 C 98.079 41.393, 68.255 79.184, 60.935 128.500 C 59.663 137.071, 59.312 160.912, 60.361 167.500 L 60.998 171.500 51.249 177.998 C 9.279 205.972, -4.697 232.640, 1.461 273 C 4.871 295.343, 12.614 310.009, 34.479 335.534 C 41.090 343.253, 47.043 350.251, 47.707 351.085 C 48.659 352.281, 48.567 353.858, 47.271 358.551 C 46.208 362.401, 45.628 368.381, 45.628 375.500 C 45.626 393.393, 50.317 403.678, 65.082 418.148 C 83.492 436.191, 104.758 445.933, 125.846 445.983 L 133.191 446 150.362 462.780 C 166.689 478.736, 180.705 490.767, 191.322 497.938 C 198.269 502.631, 213.625 509.621, 219.799 510.901 C 236.534 514.371, 255.223 509.270, 268.579 497.587 L 273.615 493.181 287.558 492.516 C 335.181 490.244, 373.345 478.905, 404 457.920 C 434.213 437.237, 444.091 417.300, 444.091 377.006 C 444.091 368.754, 443.799 360.444, 443.442 358.540 C 442.834 355.301, 443.257 354.567, 450.046 347.085 C 468.859 326.351, 479.260 307.678, 484.070 286 C 485.108 281.325, 485.966 274.834, 485.978 271.576 C 485.999 265.798, 486.171 265.427, 492.934 256.576 C 501.200 245.755, 508.310 232.751, 510.448 224.540 C 514.081 210.586, 511.467 201.548, 500.654 190.682 C 491.752 181.736, 482.688 175.751, 453.500 159.548 C 440.850 152.526, 430.347 146.639, 430.159 146.466 C 429.972 146.293, 428.742 141.055, 427.426 134.826 C 420.654 102.771, 413.506 86.644, 399.700 72.266 C 387.227 59.277, 372.748 54.711, 354.641 58.059 C 349.429 59.022, 348.762 58.939, 347.208 57.132 C 346.268 56.040, 339.059 47.254, 331.187 37.607 C 306.868 7.806, 296.444 1.154, 273 0.477 C 266.675 0.294, 260.375 0.369, 259 0.643" stroke="none" fill="black" fill-rule="evenodd"/>
</svg>